<svg width="18" height="18" viewBox="0 0 18 18" fill="none" xmlns="http://www.w3.org/2000/svg">
<path id="Icon" d="M17.6836 16.1895L10.4906 9.00041L17.6836 1.86428C18.0441 1.44678 18.0246 0.820247 17.6388 0.426311C17.2531 0.0323745 16.6311 0.00384066 16.2114 0.360822L8.99735 7.44401L1.90951 0.307884C1.49934 -0.102628 0.836908 -0.102628 0.426741 0.307884C0.227658 0.506686 0.115677 0.777304 0.115677 1.05961C0.115677 1.34192 0.227658 1.61254 0.426741 1.81134L7.50407 8.93688L0.311064 16.0624C0.111981 16.2612 0 16.5318 0 16.8142C0 17.0965 0.111981 17.3671 0.311064 17.5659C0.509522 17.7641 0.778186 17.8746 1.05771 17.8729C1.3321 17.8746 1.59627 17.7682 1.79383 17.5765L8.99735 10.4298L16.2114 17.6929C16.4098 17.8911 16.6785 18.0016 16.958 18C17.2339 17.9988 17.4983 17.8885 17.6942 17.6929C17.8919 17.4927 18.0019 17.2213 18 16.939C17.998 16.6567 17.8841 16.3869 17.6836 16.1895Z" fill="#FDF2F8"/>
</svg>
