<svg width="18" height="18" viewBox="0 0 18 18" fill="none" xmlns="http://www.w3.org/2000/svg">
<g id="clearSummary">
<path id="Icon" d="M15.9467 14.7516L10.1923 9.00032L15.9467 3.29141C16.2351 2.95741 16.2195 2.45619 15.9109 2.14104C15.6023 1.82589 15.1047 1.80306 14.7689 2.08865L8.99769 7.7552L3.32741 2.04629C2.99928 1.71789 2.46933 1.71789 2.1412 2.04629C1.98193 2.20534 1.89235 2.42183 1.89235 2.64768C1.89235 2.87352 1.98193 3.09002 2.1412 3.24906L7.80306 8.9495L2.04866 14.6499C1.88939 14.809 1.7998 15.0255 1.7998 15.2513C1.7998 15.4772 1.88939 15.6937 2.04866 15.8527C2.20742 16.0112 2.42235 16.0996 2.64597 16.0983C2.86548 16.0997 3.07682 16.0145 3.23487 15.8612L8.99769 10.1438L14.7689 15.9543C14.9277 16.1129 15.1426 16.2013 15.3662 16.2C15.5869 16.199 15.7984 16.1108 15.9551 15.9543C16.1133 15.7942 16.2014 15.577 16.1998 15.3512C16.1982 15.1253 16.1071 14.9095 15.9467 14.7516Z" fill="#EDFDFE"/>
</g>
</svg>
