<svg width="22.000000" height="22.000000" viewBox="0 0 22 22" fill="none" xmlns="http://www.w3.org/2000/svg" xmlns:xlink="http://www.w3.org/1999/xlink">
	<path id="Icon" d="M21.61 19.78L12.82 11L21.61 2.27C22.05 1.76 22.02 1 21.55 0.52C21.08 0.03 20.32 0 19.81 0.44L10.99 9.09L2.33 0.37C1.83 -0.13 1.02 -0.13 0.52 0.37C0.27 0.61 0.14 0.95 0.14 1.29C0.14 1.64 0.27 1.97 0.52 2.21L9.17 10.92L0.38 19.63C0.13 19.87 0 20.2 0 20.55C0 20.89 0.13 21.22 0.38 21.46C0.62 21.71 0.95 21.84 1.29 21.84C1.62 21.84 1.95 21.71 2.19 21.48L10.99 12.74L19.81 21.62C20.05 21.86 20.38 22 20.72 22C21.06 21.99 21.38 21.86 21.62 21.62C21.86 21.37 22 21.04 22 20.7C21.99 20.35 21.85 20.02 21.61 19.78Z" fill="#8E8E93" fill-opacity="1.000000" fill-rule="nonzero"/>
</svg>
