<svg width="18" height="18" viewBox="0 0 18 18" fill="none" xmlns="http://www.w3.org/2000/svg">
<g id="Font Resize">
<path id="A" d="M8.20963 14.8205H3.75637L3.04249 18H0L4.31728 0H7.68272L12 18H8.92351L8.20963 14.8205ZM7.46176 11.4359L5.983 4.84615L4.52125 11.4359H7.46176Z" fill="#15A7C5"/>
<path id="Icon" d="M14.9097 2.92247L12.6209 5.62402C12.4434 5.83357 12.4447 6.17488 12.6239 6.38634C12.803 6.5978 13.0922 6.59935 13.2697 6.3898L14.7227 4.67477L14.7668 16.1604L13.2401 14.3583C13.0609 14.1468 12.7717 14.1452 12.5942 14.3548C12.4167 14.5644 12.418 14.9057 12.5971 15.1171L14.9068 17.8433C15.0872 18.0509 15.3737 18.0524 15.5526 17.8467L17.8414 15.1452C18.0189 14.9356 18.0176 14.5943 17.8384 14.3829C17.6593 14.1714 17.3701 14.1699 17.1926 14.3794L15.6796 16.1653L15.6349 4.53736L17.2222 6.41096C17.4014 6.62243 17.6905 6.62398 17.8681 6.41442C18.0456 6.20487 18.0443 5.86357 17.8651 5.6521L15.5555 2.92593C15.375 2.71834 15.0886 2.71681 14.9097 2.92247Z" fill="#15A7C5"/>
</g>
</svg>
