<svg width="18" height="18" viewBox="0 0 18 18" fill="none" xmlns="http://www.w3.org/2000/svg">
<path id="Icon" d="M14.7891 13.793L9.99376 9.00027L14.7891 4.24285C15.0294 3.96452 15.0164 3.54683 14.7592 3.28421C14.5021 3.02158 14.0874 3.00256 13.8076 3.24055L8.99824 7.96268L4.27301 3.20526C3.99956 2.93158 3.55794 2.93158 3.28449 3.20526C3.15177 3.33779 3.07712 3.5182 3.07712 3.70641C3.07712 3.89461 3.15177 4.07503 3.28449 4.20756L8.00271 8.95792L3.20738 13.7083C3.07465 13.8408 3 14.0212 3 14.2094C3 14.3976 3.07465 14.5781 3.20738 14.7106C3.33968 14.8427 3.51879 14.9164 3.70514 14.9153C3.88807 14.9164 4.06418 14.8455 4.19589 14.7176L8.99824 9.95317L13.8076 14.7953C13.9399 14.9274 14.119 15.0011 14.3054 15C14.4893 14.9992 14.6655 14.9257 14.7961 14.7953C14.9279 14.6618 15.0013 14.4809 15 14.2927C14.9987 14.1045 14.9227 13.9246 14.7891 13.793Z" fill="#1485A6"/>
</svg>
