<svg width="39.968750" height="56.568604" viewBox="0 0 39.9688 56.5686" fill="none" xmlns="http://www.w3.org/2000/svg" xmlns:xlink="http://www.w3.org/1999/xlink">
	<desc>
			Created with Pixso.
	</desc>
	<defs/>
	<path id="Logo" d="M19.9844 56.5686L12.9131 49.4976L27.0557 35.3553C28.998 33.4127 29.9697 31.0603 29.9697 28.2981C29.9785 25.5267 29.0078 23.1652 27.0557 21.2133L34.127 14.1422C38.0303 18.046 39.9775 22.7646 39.9688 28.2981C39.9688 33.8224 38.0215 38.5319 34.127 42.4264L19.9844 56.5686ZM5.84277 42.4264C1.94727 38.5319 0 33.8224 0 28.2981C-0.00878906 22.7646 1.93848 18.046 5.84277 14.1422L19.9844 0L27.0557 7.07104L12.9131 21.2133C10.9619 23.1652 9.99023 25.5267 9.99902 28.2981C9.99902 31.0603 10.9707 33.4127 12.9131 35.3553L5.84277 42.4264Z" fill="#30B0C7" fill-opacity="1.000000" fill-rule="evenodd"/>
</svg>
