<svg width="40.000000" height="40.000000" viewBox="0 0 40 40" fill="none" xmlns="http://www.w3.org/2000/svg" xmlns:xlink="http://www.w3.org/1999/xlink">
	<defs/>
	<rect id="Close" width="40.000000" height="40.000000" fill="#FFFFFF" fill-opacity="0"/>
	<path id="Icon" d="M32.54 30.38L22.15 20L32.54 9.69C33.06 9.08 33.03 8.18 32.47 7.61C31.92 7.04 31.02 7 30.41 7.52L19.99 17.75L9.75 7.44C9.16 6.85 8.2 6.85 7.61 7.44C7.32 7.73 7.16 8.12 7.16 8.53C7.16 8.93 7.32 9.32 7.61 9.61L17.83 19.9L7.44 30.2C7.16 30.48 7 30.87 7 31.28C7 31.69 7.16 32.08 7.44 32.37C7.73 32.65 8.12 32.81 8.52 32.81C8.92 32.81 9.3 32.66 9.59 32.38L19.99 22.06L30.41 32.55C30.7 32.84 31.09 33 31.49 33C31.89 32.99 32.27 32.83 32.55 32.55C32.84 32.26 33 31.87 33 31.46C32.99 31.05 32.83 30.66 32.54 30.38Z" fill="#F2F2F7" fill-opacity="1.000000" fill-rule="nonzero"/>
</svg>
