<svg width="20" height="18" viewBox="0 0 20 18" fill="none" xmlns="http://www.w3.org/2000/svg">
<g id="sound-is-playing">
<path id="Union" fill-rule="evenodd" clip-rule="evenodd" d="M1.56773 11.4982C0.677945 9.95115 0.677945 8.04761 1.56773 6.50052C1.93823 5.8563 2.56625 5.40101 3.29374 5.24923L4.75222 4.94492L6.70831 2.49609L6.75498 2.43766L6.75502 2.43762L6.75502 2.43762C7.30808 1.74515 7.78727 1.14518 8.19963 0.750626C8.5662 0.399876 9.26187 -0.16917 10.135 0.136732C11.008 0.442633 11.1964 1.32142 11.2639 1.82426C11.3399 2.3899 11.3398 3.15776 11.3398 4.044V4.04404L11.3398 4.1188V13.88L11.3398 13.9547V13.9547C11.3398 14.841 11.3399 15.6089 11.2639 16.1745C11.1964 16.6773 11.008 17.5561 10.135 17.862C9.26187 18.1679 8.5662 17.5989 8.19963 17.2481C7.78727 16.8536 7.30808 16.2536 6.75501 15.5611L6.75498 15.5611L6.75498 15.5611L6.70832 15.5027L4.75222 13.0538L3.29374 12.7495C2.56625 12.5977 1.93823 12.1425 1.56773 11.4982ZM3.30144 7.49763C2.76671 8.42739 2.76671 9.57137 3.30144 10.5011C3.38748 10.6507 3.53331 10.7564 3.70224 10.7917L5.35541 11.1366C5.68513 11.2054 5.98053 11.387 6.19075 11.6502L8.27097 14.2544C8.7197 14.8162 9.05158 15.2297 9.31607 15.5248C9.33857 15.1292 9.33977 14.5989 9.33977 13.88V4.1188C9.33977 3.39983 9.33857 2.86957 9.31607 2.47396C9.05158 2.76902 8.7197 3.18258 8.27097 3.74433L6.19075 6.34854C5.98054 6.61171 5.68513 6.79334 5.35541 6.86213L3.70224 7.20706C3.53331 7.24231 3.38748 7.34803 3.30144 7.49763ZM9.79727 2.0205C9.79713 2.02103 9.79202 2.02422 9.78238 2.02844C9.7926 2.02207 9.79742 2.01996 9.79727 2.0205ZM9.22978 1.83483C9.22489 1.82552 9.22288 1.81984 9.2231 1.81933C9.22332 1.81882 9.22577 1.82347 9.22978 1.83483ZM9.2231 16.1794C9.22288 16.1789 9.22489 16.1732 9.22978 16.1639C9.22577 16.1753 9.22332 16.1799 9.2231 16.1794ZM9.78238 15.9703C9.79202 15.9745 9.79713 15.9777 9.79727 15.9783C9.79742 15.9788 9.7926 15.9767 9.78238 15.9703ZM18.7936 5.57818C19.1923 5.96036 19.2057 6.59338 18.8235 6.99208L16.8995 8.9993L18.8235 11.0065C19.2057 11.4052 19.1923 12.0382 18.7936 12.4204C18.3949 12.8026 17.7619 12.7892 17.3797 12.3905L15.5143 10.4444L13.6489 12.3905C13.2667 12.7892 12.6337 12.8026 12.235 12.4204C11.8363 12.0382 11.8229 11.4052 12.2051 11.0065L14.1291 8.9993L12.2051 6.99208C11.8229 6.59338 11.8363 5.96036 12.235 5.57818C12.6337 5.19601 13.2667 5.20941 13.6489 5.60811L15.5143 7.55418L17.3797 5.60811C17.7619 5.20941 18.3949 5.19601 18.7936 5.57818Z" fill="#EDFDFE"/>
</g>
</svg>
