<svg width="20" height="18" viewBox="0 0 20 18" fill="none" xmlns="http://www.w3.org/2000/svg">
<g id="sound-is-stopped">
<path id="Union" fill-rule="evenodd" clip-rule="evenodd" d="M1.60627 11.5297C0.665097 9.97311 0.665096 8.02285 1.60627 6.46621C1.97818 5.8511 2.59178 5.42091 3.29683 5.28098L4.9003 4.96274L7.09367 2.35081L7.14167 2.29364C7.69141 1.63889 8.17068 1.06808 8.58274 0.694061C8.95558 0.355654 9.64876 -0.175451 10.5007 0.134815C11.3526 0.445083 11.5419 1.29757 11.6098 1.79649C11.6849 2.34789 11.6848 3.09321 11.6847 3.94812L11.6847 4.02282V13.9731L11.6847 14.0478C11.6848 14.9027 11.6849 15.6481 11.6098 16.1995C11.5419 16.6984 11.3526 17.5509 10.5007 17.8611C9.64876 18.1714 8.95558 17.6403 8.58275 17.3019C8.17069 16.9279 7.69143 16.3571 7.14169 15.7023L7.09367 15.6451L4.9003 13.0332L3.29683 12.715C2.59178 12.575 1.97818 12.1449 1.60627 11.5297ZM3.31776 7.50101C2.76127 8.42141 2.76127 9.57455 3.31776 10.4949C3.39881 10.629 3.53253 10.7227 3.68617 10.7532L5.47127 11.1075C5.80026 11.1728 6.09713 11.3484 6.31282 11.6053L8.62526 14.359C9.07166 14.8906 9.4006 15.2804 9.66176 15.5575C9.68352 15.1773 9.68474 14.6673 9.68474 13.9731V4.02282C9.68474 3.32867 9.68352 2.81862 9.66176 2.43841C9.4006 2.71558 9.07166 3.1054 8.62526 3.63697L6.31282 6.3907C6.09713 6.64755 5.80026 6.82313 5.47127 6.88843L3.68617 7.24272C3.53253 7.27321 3.39881 7.36696 3.31776 7.50101ZM10.133 2.01546C10.1329 2.01595 10.128 2.01882 10.1189 2.02261C10.1286 2.01688 10.1332 2.01498 10.133 2.01546ZM9.57907 1.82601C9.57453 1.81724 9.57266 1.81193 9.57286 1.81146C9.57306 1.811 9.57533 1.81538 9.57907 1.82601ZM9.57286 16.1845C9.57266 16.184 9.57453 16.1787 9.57907 16.1699C9.57533 16.1806 9.57306 16.185 9.57286 16.1845ZM10.1189 15.9733C10.128 15.9771 10.1329 15.98 10.133 15.9805C10.1332 15.981 10.1286 15.9791 10.1189 15.9733ZM12.9881 3.90899C13.4465 3.60101 14.0678 3.72298 14.3758 4.18142C15.259 5.49612 15.7261 7.21967 15.7308 8.97132C15.7354 10.7231 15.2774 12.4509 14.4023 13.7742C14.0977 14.2349 13.4773 14.3614 13.0166 14.0568C12.5559 13.7521 12.4294 13.1317 12.7341 12.671C13.3568 11.7294 13.7345 10.403 13.7308 8.97662C13.727 7.55014 13.3422 6.2293 12.7157 5.29671C12.4077 4.83827 12.5297 4.21697 12.9881 3.90899ZM16.939 1.78711C16.6164 1.33887 15.9914 1.23704 15.5432 1.55968C15.0949 1.88232 14.9931 2.50725 15.3158 2.95549C16.4345 4.50978 17.0959 6.66661 17.1024 8.96177C17.1089 11.2568 16.4598 13.4219 15.3489 14.9899C15.0296 15.4405 15.136 16.0646 15.5867 16.3839C16.0373 16.7032 16.6615 16.5967 16.9807 16.1461C18.3661 14.1908 19.1099 11.6048 19.1024 8.9561C19.0949 6.3075 18.3365 3.72861 16.939 1.78711Z" fill="#EDFDFE"/>
</g>
</svg>
