<svg width="18" height="18" viewBox="0 0 18 18" fill="none" xmlns="http://www.w3.org/2000/svg">
<g id="Copy">
<path d="M0 3.64557C0 1.63218 1.63218 0 3.64557 0H10.9367C12.9501 0 14.5823 1.63218 14.5823 3.64557V10.9367C14.5823 12.9501 12.9501 14.5823 10.9367 14.5823H3.64557C1.63218 14.5823 0 12.9501 0 10.9367V3.64557Z" fill="#EDFDFE"/>
<path d="M13.6709 18H6.37975C6.00077 17.995 5.69617 17.6864 5.6962 17.3073C5.70119 16.9334 6.00577 16.6329 6.37975 16.6329H13.6709C14.458 16.6329 15.2128 16.3196 15.7686 15.7621C16.3243 15.2047 16.6353 14.4489 16.6329 13.6618V6.37063C16.6329 5.99312 16.9389 5.68709 17.3165 5.68709C17.694 5.68709 18 5.99312 18 6.37063V13.6618C18 16.0542 16.0633 17.995 13.6709 18Z" fill="#EDFDFE"/>
</g>
</svg>
